# xmcd
#
# Track frame offsets:
#       150
#       17855
#       41079
#       59632
#       76361
#       92684
#       114932
#       147924
#       159706
#       188592
#       207051
#       221829
#       243293
#       257162
#       272398
#       292497
#
# Disc length: 4141 seconds
#
# Revision: 0
# Processed by: cddbd v1.5.2PL0 Copyright (c) Steve Scherf et al.
# Submitted via: WhereIsIt 3.51
#
DISCID=ee102b10
DTITLE=Celso Blues Boy - 'In Blues
DYEAR=2003
DGENRE=
TTITLE0=Apenas Outro Blues
TTITLE1=Homem das Ruas
TTITLE2=Antes De Você
TTITLE3=Baby Blue
TTITLE4=Que Pecado Eu Fiz
TTITLE5=Nuvens Negras Choram
TTITLE6=Esquinas do Tempo
TTITLE7=Indiana Blues
TTITLE8=Onze horas da manhã
TTITLE9=Trem da Meia Noite
TTITLE10=Hey Baby
TTITLE11=Brilho da Noite
TTITLE12=A Isso Chamam Blues
TTITLE13=Blues Motel
TTITLE14=Aquarela do Brasil (In Blues)
TTITLE15=Aumenta que isso ai é Rock 'n' Roll
EXTD=
EXTT0=
EXTT1=
EXTT2=
EXTT3=
EXTT4=
EXTT5=
EXTT6=
EXTT7=
EXTT8=
EXTT9=
EXTT10=
EXTT11=
EXTT12=
EXTT13=
EXTT14=
EXTT15=
PLAYORDER=
